<?xml version="1.0" encoding="iso-8859-1"?>
<!-- Generator: Adobe Illustrator 19.0.0, SVG Export Plug-In . SVG Version: 6.00 Build 0)  -->
<svg xmlns="http://www.w3.org/2000/svg" xmlns:xlink="http://www.w3.org/1999/xlink" version="1.1" id="Capa_1" x="0px" y="0px" viewBox="0 0 512 512" style="enable-background:new 0 0 512 512;" xml:space="preserve" width="512px" height="512px">
<g>
	<g>
		<g>
			<path d="M504.5,251.072c4.143,0,7.5-3.358,7.5-7.5v-9.355c0-7.27-3.271-14.024-8.974-18.532     c-5.703-4.507-13.031-6.13-20.103-4.452l-89.846,21.322v-13.492c0-32.96-26.814-59.774-59.773-59.774h-83.406     c-3.767-36.705-34.866-65.434-72.55-65.434H79.586c-0.802-12.505-11.225-22.436-23.93-22.436H23.985     C10.76,71.42,0,82.18,0,95.406v70.014c0,12.018,8.884,21.997,20.43,23.72c-5.117,8.807-8.063,19.025-8.063,29.923v161.744     c0,32.959,26.814,59.774,59.774,59.774h261.163c32.959,0,59.773-26.815,59.773-59.774v-12.62l89.587,22.327     c1.915,0.477,3.849,0.712,5.766,0.712c5.199,0,10.276-1.726,14.491-5.019c5.77-4.508,9.078-11.292,9.078-18.614v-88.522     c0-4.142-3.357-7.5-7.5-7.5s-7.5,3.358-7.5,7.5v88.522c0,2.672-1.208,5.149-3.314,6.794c-2.106,1.645-4.796,2.217-7.393,1.572     l-17.804-4.437V230.076l17.898-4.248c2.58-0.614,5.256-0.021,7.337,1.625c2.082,1.645,3.275,4.111,3.275,6.764v9.355     C497,247.714,500.357,251.072,504.5,251.072z M79.642,108.856h97.707c29.401,0,53.74,22.021,57.432,50.434H79.642V108.856z      M15,165.42V95.406c0-4.955,4.031-8.985,8.985-8.985h31.671c4.954,0,8.985,4.031,8.985,8.985v64.371     c-12.261,1.543-23.375,6.804-32.173,14.628h-8.483C19.031,174.405,15,170.375,15,165.42z M378.079,380.808h-0.001     c0,24.688-20.085,44.774-44.773,44.774H72.142c-24.689,0-44.774-20.086-44.774-44.774V219.064     c0-24.689,20.086-44.774,44.774-44.774h0.055c0.016,0,0.032,0,0.048,0h261.061c24.689,0,44.773,20.085,44.773,44.774V380.808z      M453.489,367.785l-60.411-15.056V247.972l60.411-14.336V367.785z" fill="#FFFFFF"/>
			<path d="M166.482,365.361c4.45,0,8.914-1.031,13.067-3.107l72.444-36.222c9.948-4.974,16.128-14.974,16.128-26.097     s-6.18-21.122-16.128-26.096l-72.444-36.222c-9.112-4.556-19.725-4.078-28.389,1.277c-8.665,5.355-13.838,14.633-13.838,24.82     v72.444c0,10.186,5.173,19.464,13.837,24.819C155.876,363.892,161.169,365.361,166.482,365.361z M152.323,263.713     c0-5.023,2.451-9.419,6.724-12.06c2.321-1.434,4.866-2.157,7.426-2.157c2.152,0,4.316,0.51,6.368,1.536l72.444,36.222     c4.907,2.454,7.837,7.194,7.837,12.68c0,5.487-2.93,10.227-7.837,12.681l-72.443,36.222c-4.492,2.247-9.52,2.022-13.795-0.621     c-4.273-2.641-6.724-7.036-6.724-12.06V263.713z" fill="#FFFFFF"/>
			<path d="M318.826,196.904H86.619c-20.201,0-36.637,16.436-36.637,36.637v132.788c0,16.204,10.859,30.673,26.407,35.188     c3.972,1.152,8.138-1.133,9.293-5.111c1.155-3.978-1.133-8.139-5.111-9.294c-9.179-2.665-15.589-11.211-15.589-20.782V233.541     c0-11.931,9.706-21.637,21.637-21.637h232.207c11.931,0,21.637,9.707,21.637,21.637v132.788c0,11.931-9.706,21.637-21.637,21.637     h-205.31c-4.143,0-7.5,3.358-7.5,7.5c0,4.142,3.357,7.5,7.5,7.5h205.31c20.201,0,36.637-16.435,36.637-36.637V233.541     C355.463,213.34,339.027,196.904,318.826,196.904z" fill="#FFFFFF"/>
		</g>
	</g>
</g>
<g>
</g>
<g>
</g>
<g>
</g>
<g>
</g>
<g>
</g>
<g>
</g>
<g>
</g>
<g>
</g>
<g>
</g>
<g>
</g>
<g>
</g>
<g>
</g>
<g>
</g>
<g>
</g>
<g>
</g>
</svg>
